# Blender v2.90.1 OBJ File: 'test_scene.blend'
# www.blender.org
mtllib test_scene.mtl
o Plane
v -10.000000 0.000000 10.000000
v 10.000000 0.000000 10.000000
v -10.000000 0.000000 -10.000000
v 10.000000 0.000000 -10.000000
vt 1.000000 0.000000
vt 0.000000 1.000000
vt 0.000000 0.000000
vt 1.000000 1.000000
vn 0.0000 1.0000 0.0000
usemtl None
s off
f 2/1/1 3/2/1 1/3/1
f 2/1/1 4/4/1 3/2/1
o Icosphere_Icosphere.001
v 0.000000 0.000000 0.000000
v 0.361800 0.276393 0.262860
v -0.138193 0.276393 0.425320
v -0.447212 0.276393 0.000000
v -0.138193 0.276393 -0.425320
v 0.361800 0.276393 -0.262860
v 0.138193 0.723607 0.425320
v -0.361800 0.723607 0.262860
v -0.361800 0.723607 -0.262860
v 0.138193 0.723607 -0.425320
v 0.447212 0.723607 0.000000
v 0.000000 1.000000 0.000000
vt 0.818181 0.000000
vt 0.727272 0.157461
vt 0.909090 0.157461
vt 0.636363 0.000000
vt 0.545454 0.157461
vt 0.090909 0.000000
vt 0.000000 0.157461
vt 0.181818 0.157461
vt 0.272727 0.000000
vt 0.363636 0.157461
vt 0.454545 0.000000
vt 0.636363 0.314921
vt 0.818181 0.314921
vt 0.090909 0.314921
vt 0.272727 0.314921
vt 0.454545 0.314921
vt 1.000000 0.314921
vt 0.727272 0.472382
vt 0.909090 0.472382
vt 0.181818 0.472382
vt 0.363636 0.472382
vt 0.545454 0.472382
vn 0.1876 -0.7947 0.5774
vn 0.6071 -0.7947 0.0000
vn -0.4911 -0.7947 0.3568
vn -0.4911 -0.7947 -0.3568
vn 0.1876 -0.7947 -0.5774
vn 0.9822 -0.1876 0.0000
vn 0.3035 -0.1876 0.9342
vn -0.7946 -0.1876 0.5774
vn -0.7946 -0.1876 -0.5774
vn 0.3035 -0.1876 -0.9342
vn 0.7946 0.1876 0.5774
vn -0.3035 0.1876 0.9342
vn -0.9822 0.1876 0.0000
vn -0.3035 0.1876 -0.9342
vn 0.7946 0.1876 -0.5774
vn 0.4911 0.7947 0.3568
vn -0.1876 0.7947 0.5774
vn -0.6071 0.7947 0.0000
vn -0.1876 0.7947 -0.5774
vn 0.4911 0.7947 -0.3568
usemtl None
s off
f 5/5/2 6/6/2 7/7/2
f 6/6/3 5/8/3 10/9/3
f 5/10/4 7/11/4 8/12/4
f 5/13/5 8/12/5 9/14/5
f 5/15/6 9/14/6 10/9/6
f 6/6/7 10/9/7 15/16/7
f 7/7/8 6/6/8 11/17/8
f 8/12/9 7/11/9 12/18/9
f 9/14/10 8/12/10 13/19/10
f 10/9/11 9/14/11 14/20/11
f 6/6/12 15/16/12 11/17/12
f 7/7/13 11/17/13 12/21/13
f 8/12/14 12/18/14 13/19/14
f 9/14/15 13/19/15 14/20/15
f 10/9/16 14/20/16 15/16/16
f 11/17/17 15/16/17 16/22/17
f 12/21/18 11/17/18 16/23/18
f 13/19/19 12/18/19 16/24/19
f 14/20/20 13/19/20 16/25/20
f 15/16/21 14/20/21 16/26/21
o Cube_Cube.003
v 0.750000 0.250000 0.250000
v 0.750000 0.750000 0.250000
v 0.750000 0.250000 -0.250000
v 0.750000 0.750000 -0.250000
v 1.250000 0.250000 0.250000
v 1.250000 0.750000 0.250000
v 1.250000 0.250000 -0.250000
v 1.250000 0.750000 -0.250000
vt 0.625000 0.000000
vt 0.375000 0.250000
vt 0.375000 0.000000
vt 0.625000 0.250000
vt 0.375000 0.500000
vt 0.625000 0.500000
vt 0.375000 0.750000
vt 0.625000 0.750000
vt 0.375000 1.000000
vt 0.125000 0.750000
vt 0.125000 0.500000
vt 0.875000 0.500000
vt 0.625000 1.000000
vt 0.875000 0.750000
vn -1.0000 0.0000 0.0000
vn 0.0000 0.0000 -1.0000
vn 1.0000 0.0000 0.0000
vn 0.0000 0.0000 1.0000
vn 0.0000 -1.0000 0.0000
vn 0.0000 1.0000 0.0000
usemtl None
s off
f 18/27/22 19/28/22 17/29/22
f 20/30/23 23/31/23 19/28/23
f 24/32/24 21/33/24 23/31/24
f 22/34/25 17/35/25 21/33/25
f 23/31/26 17/36/26 19/37/26
f 20/38/27 22/34/27 24/32/27
f 18/27/22 20/30/22 19/28/22
f 20/30/23 24/32/23 23/31/23
f 24/32/24 22/34/24 21/33/24
f 22/34/25 18/39/25 17/35/25
f 23/31/26 21/33/26 17/36/26
f 20/38/27 18/40/27 22/34/27
o Plane.002
v 1.482812 0.000000 0.252409
v 1.987630 0.000000 0.252409
v 1.482812 0.453046 -0.252409
v 1.482812 0.453046 0.252409
v 1.987630 0.453046 0.252409
v 1.987630 0.453046 -0.252409
vt 1.000000 0.000000
vt 0.000000 1.000000
vt 0.000000 0.000000
vt 1.000000 0.000000
vt 0.000000 0.000000
vt 1.000000 1.000000
vn 0.0000 1.0000 0.0000
vn 0.0000 0.0000 1.0000
usemtl None
s off
f 29/41/28 27/42/28 28/43/28
f 26/44/29 28/43/29 25/45/29
f 29/41/28 30/46/28 27/42/28
f 26/44/29 29/41/29 28/43/29
